<svg width="110" height="110" viewBox="0 0 110 110" fill="none" xmlns="http://www.w3.org/2000/svg">
<path fill-rule="evenodd" clip-rule="evenodd" d="M55 0C85.3768 0 110 24.6232 110 55C110 75.5436 98.7365 93.456 82.0469 102.9L30.2786 104.144C12.3189 95.0936 0 76.4861 0 55C0 24.6232 24.6232 0 55 0Z" fill="#68C6E2"/>
<path fill-rule="evenodd" clip-rule="evenodd" d="M71.5294 88.6521L38.4923 91.3815C38.4923 91.3815 32.8551 96.3564 30.2349 104.115C37.6771 107.875 46.0911 109.996 55 109.996C64.8441 109.996 74.0806 107.409 82.0724 102.878C79.5576 98.5763 76.1222 93.616 71.5294 88.6521Z" fill="white"/>
<path fill-rule="evenodd" clip-rule="evenodd" d="M74.0733 91.5379C73.8695 91.2977 73.6657 91.0539 73.4546 90.8137L35.0933 95.2391C35.0933 95.2391 38.4123 106.594 56.7286 104.45C72.1263 102.649 73.8986 94.1873 74.0733 91.5379Z" fill="#D8D4D3"/>
<path fill-rule="evenodd" clip-rule="evenodd" d="M73.6765 86.916L36.2141 86.4211C35.2533 85.1655 30.7516 87.7494 32.7422 93.121C33.8195 96.0324 38.0555 98.9693 42.1715 100.425C52.6162 104.119 80.6493 100.476 73.6765 86.916Z" fill="url(#paint0_linear_32_95)"/>
<path fill-rule="evenodd" clip-rule="evenodd" d="M42.3101 100.469C44.3881 101.182 47.1321 101.611 50.1454 101.739C48.8862 98.6927 47.5179 94.2492 48.9991 91.84L40.7889 90.4025C40.7889 90.4025 38.8055 91.4287 39.0093 94.2346C39.1294 95.8395 40.8544 98.4925 42.3101 100.469ZM57.6823 101.459C61.3871 101.033 65.0263 100.181 67.9923 98.8746C67.8504 95.8613 67.4537 92.3604 66.442 90.2678L55.7681 91.9091C55.7717 91.9091 54.014 97.1242 57.6823 101.459Z" fill="url(#paint1_linear_32_95)"/>
<path fill-rule="evenodd" clip-rule="evenodd" d="M58.2863 93.5506L36.7565 87.6295C36.7565 87.6295 34.9332 86.9453 35.0097 87.6659C35.0861 88.3865 43.7803 96.6658 58.2863 93.5506Z" fill="url(#paint2_linear_32_95)"/>
<path fill-rule="evenodd" clip-rule="evenodd" d="M57.4785 6.53252C69.8993 7.31132 79.8017 10.6412 79.5942 13.9639C79.5906 14.0221 79.5833 14.0803 79.5724 14.1386L79.6707 14.1458C79.6707 14.1458 74.1536 31.5087 73.4548 53.9592L54.5781 52.7765L35.7013 51.5937C37.812 29.2342 34.5112 11.3145 34.5112 11.3145L34.6095 11.3181C34.6058 11.2599 34.6058 11.2017 34.6095 11.1435C34.8169 7.81718 45.0578 5.75373 57.4785 6.53252Z" fill="#131209"/>
<path fill-rule="evenodd" clip-rule="evenodd" d="M71.1657 8.6576C76.4063 10.0915 79.7143 12.0312 79.5942 13.9673C79.5906 14.0255 79.5833 14.0837 79.5724 14.142L79.6707 14.1492C79.6707 14.1492 74.1536 31.5121 73.4548 53.9626L67.7485 53.606C68.7238 30.1983 72.9563 11.9875 72.9563 11.9875L72.8871 11.9802C72.8944 11.922 72.9017 11.8601 72.9053 11.7983C72.9745 10.7029 72.3376 9.62928 71.1657 8.6576ZM41.4076 51.9501L35.7013 51.5935C37.812 29.2339 34.5112 11.3143 34.5112 11.3143L34.6095 11.3179C34.6058 11.2597 34.6058 11.2014 34.6095 11.1432C34.7296 9.20713 38.256 7.69684 43.6348 6.92896C42.3502 7.74779 41.5859 8.73402 41.5168 9.8258C41.5131 9.88767 41.5131 9.94953 41.5131 10.0078L41.444 10.0041C41.444 10.0078 43.3692 28.6043 41.4076 51.9501Z" fill="#413B3A"/>
<path fill-rule="evenodd" clip-rule="evenodd" d="M74.4701 39.9881C73.9861 44.337 73.6149 49.0316 73.4548 53.9591L54.578 52.7764L35.7012 51.5936C36.1561 46.6843 36.3781 41.9787 36.4399 37.6044C40.5377 36.0795 47.6379 35.3407 55.6406 35.843C63.6433 36.3452 70.5943 37.9646 74.4701 39.9881Z" fill="url(#paint3_linear_32_95)"/>
<path fill-rule="evenodd" clip-rule="evenodd" d="M74.4701 39.9882C74.1353 42.9833 73.8551 46.1458 73.6622 49.4321C73.5858 50.6912 73.5239 51.9722 73.4766 53.2678L73.4693 53.4971L73.462 53.7264L73.4548 53.9556L67.7484 53.599C67.9813 48.0127 68.3998 42.7249 68.9021 37.9102C71.122 38.5216 73.0144 39.2276 74.4701 39.9882ZM41.4075 51.9504L35.7012 51.5938L35.723 51.3645L35.7448 51.1352L35.7667 50.906C35.8831 49.614 35.9814 48.3366 36.0651 47.0775L36.1051 46.4442C36.298 43.3836 36.4035 40.4249 36.4436 37.6081C37.9866 37.0331 39.9518 36.5709 42.23 36.2434C42.1208 41.08 41.877 46.3787 41.4075 51.9504Z" fill="url(#paint4_linear_32_95)"/>
<path fill-rule="evenodd" clip-rule="evenodd" d="M27.2652 54.8764C39.6059 61.1905 68.3742 62.9955 81.41 58.2754C85.5842 56.7615 86.2138 55.7352 82.8184 53.6463C72.3846 47.2303 38.0592 45.0431 26.6429 50.0252C22.9236 51.6447 23.1165 52.751 27.2652 54.8764Z" fill="black"/>
<path fill-rule="evenodd" clip-rule="evenodd" d="M77.4941 55.0982C80.7148 59.1196 82.6145 64.0399 82.6145 69.3568C82.6145 82.9349 70.252 93.94 54.9999 93.94C39.7478 93.94 27.3853 82.9349 27.3853 69.3568C27.3853 64.0399 29.2813 59.1196 32.5057 55.0982C35.0313 49.3628 74.6009 49.381 77.4941 55.0982Z" fill="#E5E5E5"/>
<path fill-rule="evenodd" clip-rule="evenodd" d="M77.4977 55.0983C80.4637 58.7995 82.3088 63.2685 82.5817 68.1014C81.9048 79.3758 71.4238 88.332 58.5918 88.332C45.3231 88.332 34.5654 78.7571 34.5654 66.9441C34.5654 62.3186 36.2176 58.0389 39.0199 54.5379C40.0498 52.2051 48.1289 50.9642 56.6957 50.8149C66.6272 50.9787 76.133 52.4053 77.4977 55.0983Z" fill="white"/>
<path fill-rule="evenodd" clip-rule="evenodd" d="M44.7518 57.7549C46.3312 57.7549 47.5212 59.327 47.4048 61.2631C47.2883 63.2028 45.9127 64.7714 44.3332 64.7714C42.7538 64.7714 41.5638 63.1992 41.6802 61.2631C41.7967 59.327 43.1723 57.7549 44.7518 57.7549Z" fill="#131209"/>
<path fill-rule="evenodd" clip-rule="evenodd" d="M66.8567 57.7549C65.2773 57.7549 64.0872 59.327 64.2037 61.2631C64.3201 63.2028 65.6958 64.7714 67.2752 64.7714C68.8546 64.7714 70.0447 63.1992 69.9282 61.2631C69.8154 59.327 68.4398 57.7549 66.8567 57.7549Z" fill="#131209"/>
<path d="M41.1825 74.2667C42.9029 71.5953 42.288 68.1355 39.8092 66.5392C37.3304 64.9429 33.9262 65.8144 32.2058 68.4859C30.4855 71.1574 31.1003 74.6171 33.5791 76.2134C36.058 77.8097 39.4621 76.9382 41.1825 74.2667Z" fill="#E95114"/>
<path fill-rule="evenodd" clip-rule="evenodd" d="M37.073 65.7429C37.1931 65.7429 37.3132 65.7466 37.4333 65.7538C34.9804 65.9322 32.9134 68.0356 32.746 70.605C32.5676 73.2907 34.5292 75.467 37.1276 75.467C39.7224 75.467 41.9678 73.2944 42.1534 70.6159C42.168 70.8633 42.168 71.1181 42.1534 71.3765C41.946 74.488 39.3403 77.01 36.3306 77.01C33.321 77.01 31.0464 74.488 31.2539 71.3765C31.454 68.2649 34.0634 65.7429 37.073 65.7429Z" fill="#D84616"/>
<path d="M76.9977 76.2195C79.4768 74.6232 80.0919 71.1632 78.3715 68.4914C76.6511 65.8196 73.2468 64.9478 70.7677 66.5442C68.2885 68.1405 67.6735 71.6005 69.3938 74.2722C71.1142 76.944 74.5186 77.8158 76.9977 76.2195Z" fill="#E95114"/>
<path fill-rule="evenodd" clip-rule="evenodd" d="M73.5093 65.7429C73.3892 65.7429 73.2691 65.7466 73.149 65.7538C75.6019 65.9322 77.6689 68.0356 77.8364 70.605C78.0147 73.2907 76.0531 75.467 73.4547 75.467C70.8599 75.467 68.6145 73.2944 68.4289 70.6159C68.4143 70.8633 68.4143 71.1181 68.4289 71.3765C68.6363 74.488 71.242 77.01 74.2517 77.01C77.2613 77.01 79.5359 74.488 79.3284 71.3765C79.1246 68.2649 76.5189 65.7429 73.5093 65.7429Z" fill="#D84616"/>
<path fill-rule="evenodd" clip-rule="evenodd" d="M59.8693 65.2334C60.2332 66.0741 60.3424 67.0312 60.124 67.992C59.5782 70.3902 57.1908 71.8896 54.7925 71.3437C52.3943 70.7978 50.8949 68.4105 51.4408 66.0122C51.6482 65.0951 52.1286 64.309 52.7764 63.7158L54.9563 60.9354L54.9818 60.9427C55.4549 60.113 56.4302 59.6544 57.4092 59.8801C58.3881 60.102 59.0687 60.9391 59.1342 61.8889H59.1378L59.8693 65.2334Z" fill="#F18B68"/>
<path fill-rule="evenodd" clip-rule="evenodd" d="M56.4338 71.4092C55.9025 71.4893 55.3493 71.4711 54.7925 71.3437C52.3943 70.7978 50.8949 68.4105 51.4408 66.0122C51.6482 65.0951 52.1286 64.309 52.7764 63.7158L54.9563 60.9354L54.9818 60.9427C55.4549 60.113 56.4302 59.6544 57.4091 59.8801C57.7913 59.9674 58.1261 60.1457 58.3954 60.3895L55.6659 61.0846C55.6623 61.081 51.9357 68.8326 56.4338 71.4092Z" fill="#DE7D5C"/>
<path fill-rule="evenodd" clip-rule="evenodd" d="M57.3436 60.1496C58.3917 60.3898 59.0467 61.4306 58.8066 62.4787C58.5664 63.5268 57.5255 64.1819 56.4774 63.9417C55.4293 63.7015 54.7743 62.6607 55.0145 61.6126C55.2547 60.5681 56.2955 59.9131 57.3436 60.1496Z" fill="#F7B69E"/>
<path fill-rule="evenodd" clip-rule="evenodd" d="M57.3802 60.3569C57.9734 60.4916 58.3446 61.0811 58.2099 61.6743C58.0753 62.2675 57.4857 62.6388 56.8925 62.5041C56.2993 62.3694 55.9281 61.7799 56.0627 61.1867C56.1974 60.5935 56.787 60.2223 57.3802 60.3569Z" fill="#F9C9BA"/>
<path fill-rule="evenodd" clip-rule="evenodd" d="M46.7025 60.0549C46.8226 60.4225 46.8772 60.8337 46.8517 61.2632C46.7571 62.8244 45.6507 64.0945 44.3734 64.0945C43.0996 64.0945 42.1389 62.828 42.2335 61.2632C42.2517 60.9757 42.3026 60.6991 42.3827 60.4371C42.6957 61.3942 43.4526 62.0565 44.3734 62.0565C45.4142 62.0601 46.3458 61.2158 46.7025 60.0549Z" fill="#454444"/>
<path fill-rule="evenodd" clip-rule="evenodd" d="M64.6221 61.0519C64.6221 61.1211 64.6257 61.1939 64.6293 61.2666C64.7276 62.9189 65.8994 64.2581 67.246 64.2581C68.5925 64.2581 69.6042 62.9189 69.5059 61.2666C69.4695 60.6844 69.3021 60.1421 69.0401 59.6799C69.0438 61.2303 68.0612 62.4567 66.7729 62.4567C65.8994 62.4567 65.1025 61.8962 64.6221 61.0519Z" fill="#454444"/>
<path d="M44.1478 72.6903C45.5816 75.9365 48.2092 78.0691 51.2006 79.1536C52.9147 79.7759 54.7525 80.0561 56.5503 80.0088C58.3445 79.9615 60.1022 79.583 61.6744 78.8879C64.1018 77.8143 66.0706 75.9838 66.995 73.4399C67.2497 72.8031 68.0649 73.0469 67.9193 73.7857C66.904 76.5806 64.6877 78.5567 62.042 79.7286C60.3679 80.4673 58.4864 80.8713 56.5722 80.9222C54.6616 80.9732 52.7109 80.6748 50.8877 80.0124C47.6742 78.8442 44.7482 76.5988 43.2016 73.1051C42.9395 72.3081 43.8384 72.1298 44.1478 72.6903Z" fill="#E5E5E5"/>
<path d="M44.1478 71.9881C45.5816 75.2343 48.2092 77.3669 51.2006 78.4514C52.9147 79.0737 54.7525 79.3576 56.5503 79.3066C58.3445 79.2593 60.1022 78.8809 61.6744 78.1858C64.1018 77.1122 66.0706 75.278 66.995 72.7378C67.2497 72.1009 68.0649 72.3448 67.9193 73.0835C66.904 75.8785 64.6877 77.8546 62.042 79.0264C60.3679 79.7652 58.4864 80.1691 56.5722 80.2201C54.6616 80.271 52.7109 79.9726 50.8877 79.3103C47.6742 78.1421 44.7482 75.8967 43.2016 72.403C42.9395 71.606 43.8384 71.4277 44.1478 71.9881Z" fill="black"/>
<path fill-rule="evenodd" clip-rule="evenodd" d="M77.4977 55.0982C78.9243 56.8815 80.0925 58.8394 80.9513 60.932C75.3796 57.4638 52.6998 51.7574 31.2246 56.8524C31.6249 56.2519 32.0544 55.666 32.5056 55.0982C35.0313 49.3628 74.6008 49.381 77.4977 55.0982Z" fill="#FDECE5"/>
<path fill-rule="evenodd" clip-rule="evenodd" d="M77.4979 55.0983C77.9601 55.677 78.3968 56.2738 78.8044 56.8888C78.3968 56.2738 77.9601 55.677 77.4979 55.0983ZM78.8044 56.8888C78.8845 57.0126 78.9645 57.1363 79.0446 57.26L78.8044 56.8888ZM79.0482 57.2673C79.0846 57.3255 79.1247 57.3874 79.161 57.4456C79.121 57.3838 79.0846 57.3255 79.0482 57.2673ZM38.2486 55.5569C35.9085 55.8735 33.5576 56.2993 31.2212 56.8524C31.6215 56.252 32.0509 55.666 32.5022 55.0983C33.856 52.0304 45.8 50.6111 57.0672 50.8258L56.6923 50.8186C48.1255 50.9678 40.0427 52.2051 39.0165 54.5415C38.7508 54.8727 38.4961 55.2111 38.2486 55.5569ZM59.5637 50.9023C59.6947 50.9059 59.8257 50.9132 59.9531 50.9205C59.8221 50.9132 59.6947 50.9059 59.5637 50.9023ZM60.5354 50.9459C60.6664 50.9532 60.7974 50.9605 60.9284 50.9678C60.7974 50.9605 60.6664 50.9532 60.5354 50.9459ZM77.3232 54.8217C77.3269 54.829 77.3341 54.8327 77.3378 54.8399C77.3341 54.8363 77.3269 54.829 77.3232 54.8217Z" fill="#D1C8C4"/>
<defs>
<linearGradient id="paint0_linear_32_95" x1="28.4414" y1="93.9439" x2="73.7692" y2="93.9439" gradientUnits="userSpaceOnUse">
<stop stop-color="#E8424A"/>
<stop offset="0.31" stop-color="#E8424A"/>
<stop offset="0.51" stop-color="#EE7179"/>
<stop offset="0.72" stop-color="#E8424A"/>
<stop offset="1" stop-color="#E8424A"/>
</linearGradient>
<linearGradient id="paint1_linear_32_95" x1="39.1842" y1="96.0039" x2="67.9939" y2="96.0039" gradientUnits="userSpaceOnUse">
<stop stop-color="#EE767D"/>
<stop offset="0.31" stop-color="#EE767D"/>
<stop offset="0.51" stop-color="#F2959C"/>
<stop offset="0.72" stop-color="#EE767D"/>
<stop offset="1" stop-color="#EE767D"/>
</linearGradient>
<linearGradient id="paint2_linear_32_95" x1="16.6398" y1="90.7925" x2="104.977" y2="90.7925" gradientUnits="userSpaceOnUse">
<stop stop-color="#C72F30"/>
<stop offset="0.31" stop-color="#C72F30"/>
<stop offset="0.51" stop-color="#CF595F"/>
<stop offset="0.72" stop-color="#C72F30"/>
<stop offset="1" stop-color="#C72F30"/>
</linearGradient>
<linearGradient id="paint3_linear_32_95" x1="35.8377" y1="43.3944" x2="74.5258" y2="45.422" gradientUnits="userSpaceOnUse">
<stop stop-color="#E8424A"/>
<stop offset="0.31" stop-color="#E8424A"/>
<stop offset="0.51" stop-color="#EE7179"/>
<stop offset="0.72" stop-color="#E8424A"/>
<stop offset="1" stop-color="#E8424A"/>
</linearGradient>
<linearGradient id="paint4_linear_32_95" x1="36.4254" y1="43.978" x2="73.8347" y2="45.9386" gradientUnits="userSpaceOnUse">
<stop stop-color="#E51F27"/>
<stop offset="0.31" stop-color="#E51F27"/>
<stop offset="0.51" stop-color="#E73446"/>
<stop offset="0.72" stop-color="#E51F27"/>
<stop offset="1" stop-color="#E51F27"/>
</linearGradient>
</defs>
</svg>
