<svg width="183" height="30" viewBox="0 0 183 30" fill="none" xmlns="http://www.w3.org/2000/svg">
<path d="M149.535 30V26.8162C150.703 26.7432 151.885 26.3281 153.08 25.5755C154.404 24.7453 155.273 23.8969 155.683 23.0303C156.027 22.3096 156.196 21.5113 156.196 20.631C156.196 19.3219 155.822 17.7665 155.073 15.951C154.974 15.5496 154.734 15.3398 154.346 15.317L153.851 15.39L153.164 15.4949L152.406 15.1391L151.72 14.7195L150.342 13.9121C150.043 13.8118 149.771 13.7388 149.535 13.7023V10.4136H150.489C150.944 9.9848 151.35 9.76129 151.684 9.74761C152.545 9.73392 153.628 10.1855 154.925 11.1023L155.206 9.88901C155.313 9.43287 155.518 9.10902 155.826 8.89919C156.2 8.64832 156.637 8.52516 157.132 8.52516C157.703 8.52516 158.234 8.6985 158.715 9.04972C159.246 9.36445 159.509 9.78866 159.509 10.3269L159.437 10.9564C159.437 11.3076 159.384 11.6816 159.263 12.0739L158.925 13.7342C158.925 14.017 158.947 14.2588 158.996 14.4367L159.192 15.1756L159.732 17.0138L160.329 19.1531L160.472 20.0015V20.8499C160.485 21.1692 160.374 22.1089 160.155 23.6597L160.81 25.6029C160.895 25.8446 160.984 26.2597 161.091 26.8618C161.158 27.2632 161.194 27.6235 161.194 27.9611C161.194 28.4035 161.127 28.7046 160.984 28.8597C160.525 29.2702 159.963 29.4754 159.295 29.4754C158.978 29.4754 158.711 29.4161 158.501 29.2976C158.242 29.2109 158.037 29.0376 157.886 28.773L157.476 28.0842L157.128 27.1127C156.254 27.92 155.104 28.6088 153.655 29.1835C152.353 29.7081 150.98 29.9772 149.535 30ZM167.043 8.59358C167.592 9.31428 167.98 10.076 168.203 10.8834C170.36 9.7841 172.514 9.22761 174.649 9.22761C176.076 9.22761 177.324 9.47849 178.399 9.9848C180.387 10.8971 181.578 12.603 181.975 15.1026L182.046 16.69L181.903 20.0426C181.881 20.485 181.926 20.9913 182.041 21.5569L182.487 23.0348C182.831 24.1797 183 24.8913 183 25.1832C183 25.8172 182.822 26.36 182.452 26.8025C181.997 27.2678 181.515 27.5095 181.007 27.5095C178.715 27.2678 177.641 25.1239 177.766 21.078L177.908 16.6991C177.944 15.7047 177.579 14.797 176.821 13.9988C176.107 13.2416 175.162 12.863 173.994 12.863C173.196 12.863 172.349 13.0272 171.453 13.3602C170.557 13.6841 169.665 14.1721 168.778 14.8061V17.1324L168.956 25.1878C168.956 26.2643 168.898 26.9302 168.782 27.1674C168.626 28.0113 168.002 28.4263 166.896 28.4263L166.143 28.3169L165.452 27.9793C164.997 27.7513 164.778 27.4685 164.801 27.1309C165.117 22.971 165.264 20.5534 165.238 19.8647L165.099 16.243C164.707 16.243 164.368 16.1153 164.065 15.8507C163.766 15.5861 163.615 15.2623 163.615 14.8791C163.713 14.2633 163.963 13.6612 164.373 13.0774L163.896 11.8185C163.744 11.3943 163.57 10.8286 163.383 10.1216C163.468 9.55603 163.695 9.04972 164.07 8.60727C164.484 8.11464 164.952 7.86833 165.483 7.86833C166.067 7.85465 166.584 8.10096 167.043 8.59358ZM149.535 10.4136V13.7023C149.37 13.6749 149.219 13.6612 149.08 13.6612C147.667 13.6612 146.405 14.1676 145.291 15.1756C144.751 15.6546 144.346 16.2658 144.078 17.0093C144.078 17.1187 143.926 17.4152 143.632 17.8942L143.093 18.7791C142.972 19.0482 142.901 19.3629 142.874 19.7142L143.017 20.3208C144.016 24.6587 146.058 26.8299 149.143 26.8299C149.272 26.8299 149.401 26.8253 149.531 26.8162V30C149.455 30 149.379 30 149.303 30C147.408 30 145.857 29.6168 144.631 28.8642C143.837 28.3716 143.008 27.5597 142.148 26.4148C140.962 24.8411 140.146 23.1717 139.7 21.4019C139.548 20.8043 139.473 20.3254 139.473 19.9605L139.597 19.185C139.615 19.0573 139.664 18.9022 139.736 18.738C139.771 18.6149 139.82 18.51 139.874 18.4142L140.351 17.3879L140.779 16.2384C141.086 15.4082 141.519 14.5735 142.085 13.7297C142.518 13.082 143.325 12.4023 144.497 11.6953C145.915 10.8469 147.569 10.4136 149.446 10.4136H149.535V10.4136ZM58.5211 28.4355V24.4306C58.8912 24.3074 59.3771 24.1113 59.9746 23.8422C61.1248 23.2994 62.0076 22.7475 62.6139 22.1818L63.6884 21.192L64.5177 20.257C64.8075 19.8464 64.9546 19.4952 64.9546 19.1942C64.9546 19.0391 64.8387 18.6422 64.6202 18.0082C64.375 17.3194 64.2368 16.8314 64.2011 16.544L63.8266 15.2851L63.4789 13.9851C63.3228 13.4332 62.9483 12.977 62.3464 12.6213L61.4503 12.2563L60.1618 11.7683C60.0548 12.3521 59.6402 12.8448 58.9179 13.2462C58.7842 13.3191 58.6504 13.383 58.5167 13.4423V8.4978C58.5612 8.47043 58.6014 8.44306 58.6504 8.41569C59.3905 8.09184 60.0593 7.92763 60.6567 7.92763C63.3095 8.26517 65.3291 9.48305 66.7157 11.5858C66.9119 11.8823 67.0724 12.1378 67.1927 12.3613C67.6252 13.5107 67.8437 14.4458 67.8437 15.1711C67.8437 15.5998 67.8927 15.9647 67.9863 16.2658L68.2315 17.0412L68.5303 17.7117L68.985 19.0026C69.0341 19.2489 69.092 19.6138 69.1767 20.1019C69.1767 20.8955 68.8201 21.6436 68.1201 22.3552L66.4303 24.052L64.6693 25.5664C62.8235 27.1583 60.7726 28.1162 58.5211 28.4355ZM101.754 9.22761L97.929 18.8293L96.1145 23.8422C95.6686 25.092 95.2317 26.5425 94.7992 28.2028C94.7992 28.4628 94.5718 28.6909 94.1126 28.8688C93.6088 29.0102 93.0248 29.0832 92.3694 29.0832C91.4688 29.0832 90.8847 28.9372 90.6128 28.6362C89.8504 27.7923 89.2485 26.6885 88.816 25.3201L88.0938 23.0667L87.4428 20.4531L86.4575 16.3068L86.0384 17.4654L85.4232 19.1987L82.8863 27.4274C82.7838 27.7741 82.3692 28.0614 81.6558 28.2895C81.0896 28.4674 80.5724 28.5586 80.1043 28.5586C79.3642 28.5586 78.9184 28.3625 78.7712 27.9702L72.3912 10.9564C72.3912 10.3497 72.5651 9.83883 72.9129 9.43743C73.2606 9.03147 73.7288 8.82621 74.3307 8.82621C75.1555 8.82621 75.6994 9.182 75.9713 9.88901L77.2152 13.2416L78.3744 16.7584L79.5158 20.412L80.6081 23.5867L83.2341 14.9384L83.9207 13.2781C84.5226 11.8276 85.2671 11.1023 86.1588 11.1023C86.6448 11.1023 87.055 11.2757 87.3983 11.6269L87.6791 11.5904L87.9244 11.5539C89.0613 11.5539 89.6319 12.4069 89.6319 14.1311L89.8771 15.8051L90.2516 17.7528L90.5682 19.3036C90.9873 21.3836 91.5178 23.0804 92.1554 24.4032C92.7974 22.264 93.9165 19.1394 95.5081 15.0296L98.4105 7.53079C98.5621 7.13851 98.9857 6.94238 99.6812 6.94238C101.099 6.94238 101.817 7.4943 101.817 8.59815C101.826 8.94481 101.803 9.15463 101.754 9.22761ZM110.471 6.71887C110.622 6.86483 110.698 7.16132 110.698 7.60377C110.698 8.15569 110.595 8.88551 110.399 9.78866L110.19 10.742C110.19 10.8834 110.167 10.9837 110.123 11.0293C111.367 9.75673 113.266 9.11814 115.83 9.11814C117.154 9.11814 118.317 9.34165 119.316 9.7841C120.382 10.2585 121.059 10.9153 121.34 11.7728C123.378 11.0658 125.308 10.7101 127.114 10.7101C128.358 10.7101 129.512 10.9199 130.569 11.3441C131.679 11.7865 132.589 12.3886 133.289 13.1504C133.984 13.9121 134.595 14.9658 135.112 16.3114C135.505 17.3058 135.696 18.5236 135.696 19.9696C135.696 21.8626 135.348 24.1113 134.657 26.6839C134.506 27.2723 134.015 27.5688 133.177 27.5688C132.673 27.5688 132.25 27.4821 131.907 27.3179C131.349 26.9348 130.988 26.0179 130.837 24.5811C130.837 23.9152 130.979 22.9436 131.265 21.6573C131.554 20.371 131.697 19.3994 131.697 18.7426C131.697 16.8405 130.796 15.536 128.986 14.8289C128.188 14.5142 127.301 14.3637 126.329 14.3637C124.657 14.3637 123.226 14.7879 122.031 15.6409V16.0879C122.031 16.3296 122.009 16.5303 121.96 16.6854V22.8113C121.96 25.3474 121.046 26.8344 119.213 27.2769L118.701 27.1172C118.197 26.9028 117.894 26.3737 117.805 25.5299L118.014 23.9425L118.415 22.0724L118.772 20.1794L118.928 18.5191V17.1917C118.928 17.0458 118.906 16.877 118.857 16.6854C117.992 16.17 117.524 15.536 117.448 14.7925C117.546 14.2269 117.76 13.8026 118.103 13.5153C118.103 12.9725 117.586 12.7034 116.552 12.7034C115.174 12.7034 113.77 13.1048 112.325 13.9076C110.751 14.7879 109.717 15.9419 109.222 17.3879C108.95 18.1679 108.772 19.1121 108.674 20.2159L108.429 23.2036C108.277 25.1148 107.43 26.2734 105.892 26.6839C105.41 26.5243 105.08 26.3509 104.889 26.1593C104.75 25.9678 104.612 25.5892 104.487 25.0236C104.487 24.7088 104.568 24.1706 104.715 23.386L105.107 21.3973L106.195 17.3058C105.812 17.0549 105.571 16.5486 105.473 15.7914C105.473 14.7833 105.941 13.7205 106.882 12.5985V11.6816L107.127 7.95043C107.176 7.20693 107.488 6.6915 108.059 6.39957L108.995 6.25817C109.574 6.2673 110.069 6.41326 110.471 6.71887ZM7.10225 4.83047C7.10225 5.90239 7.83343 6.80097 9.30471 7.53079L13.3931 8.97674C14.6905 9.41919 15.9433 10.1262 17.1381 11.1069C18.2215 11.9781 19.0419 12.9406 19.6036 13.9851C19.9826 14.6967 20.2546 15.4128 20.4151 16.1335C20.6157 17.0138 20.7138 17.7801 20.7138 18.4598C20.7138 19.8191 20.5444 20.932 20.2011 21.8124C19.8845 22.6061 19.2113 23.4408 18.1769 24.3348L17.7579 24.6997L16.7012 25.7762L16.1261 26.4285L15.2611 27.3635L14.6102 27.8288L13.674 28.3534L12.6039 28.7183L11.4091 28.8779C8.96141 28.8779 6.79016 28.3305 4.89088 27.2358C2.98714 26.1457 1.42669 24.6541 0.218462 22.752C0.0713346 22.5239 0 22.2548 0 21.9264C0 21.4976 0.200629 21.1099 0.601886 20.777C0.985309 20.4759 1.39548 20.3299 1.83241 20.3299C2.30054 20.3299 2.6483 20.5033 2.88459 20.8545C3.74507 22.1134 4.91763 23.1853 6.40228 24.0702C7.88693 24.9506 9.25121 25.393 10.4951 25.393C11.3467 25.393 12.0422 25.1695 12.5593 24.7225C13.1077 24.426 13.8345 23.8011 14.7217 22.8478L16.1172 21.3699C16.9152 20.5215 17.312 19.5317 17.312 18.4187C17.312 17.6661 17.0936 16.8633 16.67 15.9875C16.242 15.1209 15.5376 14.3044 14.5656 13.5472C13.2237 12.5118 11.9441 11.7774 10.7136 11.335L8.84549 10.669C8.25698 10.4637 7.46338 10.1399 6.4647 9.67919L5.51506 9.1227L4.68579 8.34727C4.22658 7.83184 3.89665 7.13395 3.68265 6.27642L3.54444 5.21362C3.54444 2.94207 4.78388 1.39577 7.2583 0.565607C8.3729 0.182454 9.50088 0 10.6422 0C12.3543 0 14.2535 0.319294 16.349 0.953322C16.6299 1.03999 16.7681 1.3456 16.7681 1.87472C16.7681 3.1747 16.3535 3.89995 15.5197 4.05048L14.8331 3.7996L13.0542 3.35259C12.1938 3.13821 11.2753 3.02874 10.29 3.02874C8.32831 3.02418 7.26275 3.63083 7.10225 4.83047ZM58.5211 8.4978V13.4423C57.9148 13.7069 57.2728 13.8346 56.5906 13.8346C54.2767 14.0991 52.8589 15.0935 52.3284 16.8314L52.0832 18.6696C52.0832 19.6184 52.3239 20.517 52.8054 21.3699C53.3092 22.2594 53.9468 22.9983 54.7092 23.5913C55.0569 23.8559 55.4849 24.1022 55.9798 24.3302C56.4836 24.4945 56.9161 24.5811 57.2772 24.5811H57.9683C58.111 24.5583 58.2937 24.5081 58.5211 24.4306V28.4355C57.9504 28.5176 57.3664 28.5586 56.7734 28.5586C55.3601 28.5586 54.0181 28.0432 52.7386 27.0078C51.6195 26.1229 50.6922 24.9643 49.9565 23.5503C49.1674 22.0541 48.6502 20.5808 48.405 19.1166C48.405 15.3672 49.7737 12.6076 52.5112 10.8423C53.7997 10.0122 55.2219 9.60164 56.7734 9.60164H57.5626C57.6919 9.19112 58.0084 8.82621 58.5211 8.4978ZM28.3778 8.59358C28.9262 9.31428 29.3141 10.076 29.537 10.8834C31.6949 9.7841 33.8483 9.22761 35.9838 9.22761C37.4105 9.22761 38.6589 9.47849 39.7334 9.9848C41.7218 10.8971 42.9122 12.603 43.309 15.1026L43.3804 16.69L43.2377 20.0426C43.2154 20.485 43.26 20.9913 43.3759 21.5569L43.8217 23.0348C44.165 24.1797 44.3345 24.8913 44.3345 25.1832C44.3345 25.8172 44.1561 26.36 43.7861 26.8025C43.3269 27.2678 42.8498 27.5095 42.3415 27.5095C40.0499 27.2678 38.9754 25.1239 39.1003 21.078L39.2429 16.6991C39.2786 15.7047 38.913 14.797 38.1551 13.9988C37.4373 13.2416 36.4966 12.863 35.3285 12.863C34.5304 12.863 33.6833 13.0272 32.7872 13.3602C31.891 13.6841 30.9993 14.1721 30.1121 14.8061V17.1324L30.2905 25.1878C30.2905 26.2643 30.2325 26.9302 30.1166 27.1674C29.9605 28.0113 29.3364 28.4263 28.2307 28.4263L27.4772 28.3169L26.7861 27.9793C26.3314 27.7513 26.1129 27.4685 26.1352 27.1309C26.4518 22.971 26.5989 20.5534 26.5721 19.8647L26.4339 16.243C26.0416 16.243 25.7027 16.1153 25.3996 15.8507C25.1009 15.5861 24.9493 15.2623 24.9493 14.8791C25.0474 14.2633 25.297 13.6612 25.7072 13.0774L25.2302 11.8185C25.0786 11.3943 24.9047 10.8286 24.7174 10.1216C24.8021 9.55603 25.0295 9.04972 25.404 8.60727C25.8187 8.11464 26.2868 7.86833 26.8174 7.86833C27.3969 7.85465 27.9141 8.10096 28.3778 8.59358Z" fill="#1F1D1E"/>
</svg>
