<svg width="159" height="26" viewBox="0 0 159 26" fill="none" xmlns="http://www.w3.org/2000/svg">
<path d="M129.924 26V23.2407C130.939 23.1774 131.965 22.8177 133.004 22.1654C134.154 21.4459 134.909 20.7107 135.266 19.9596C135.564 19.335 135.711 18.6432 135.711 17.8802C135.711 16.7456 135.386 15.3976 134.735 13.8242C134.65 13.4764 134.441 13.2945 134.104 13.2747L133.674 13.338L133.077 13.4289L132.419 13.1206L131.822 12.7569L130.625 12.0572C130.366 11.9702 130.129 11.9069 129.924 11.8753V9.02509H130.753C131.148 8.65349 131.501 8.45979 131.791 8.44793C132.539 8.43607 133.48 8.82743 134.607 9.62202L134.851 8.57047C134.944 8.17516 135.123 7.89448 135.39 7.71264C135.715 7.49521 136.095 7.38848 136.525 7.38848C137.021 7.38848 137.482 7.5387 137.9 7.84309C138.361 8.11586 138.589 8.4835 138.589 8.94998L138.527 9.49552C138.527 9.79991 138.481 10.1241 138.376 10.464L138.082 11.903C138.082 12.1481 138.101 12.3576 138.144 12.5118L138.314 13.1522L138.783 14.7453L139.302 16.5994L139.426 17.3347V18.0699C139.438 18.3467 139.341 19.161 139.151 20.5051L139.721 22.1891C139.794 22.3987 139.872 22.7584 139.965 23.2802C140.023 23.6281 140.054 23.9404 140.054 24.2329C140.054 24.6164 139.996 24.8773 139.872 25.0117C139.473 25.3675 138.985 25.5454 138.404 25.5454C138.129 25.5454 137.896 25.494 137.714 25.3912C137.489 25.3161 137.311 25.1659 137.179 24.9366L136.823 24.3397L136.521 23.4976C135.762 24.1974 134.762 24.7943 133.503 25.2924C132.372 25.747 131.179 25.9802 129.924 26ZM145.136 7.44777C145.612 8.07237 145.949 8.73255 146.143 9.43227C148.018 8.47955 149.889 7.99726 151.745 7.99726C152.984 7.99726 154.069 8.21469 155.002 8.65349C156.73 9.44412 157.764 10.9226 158.109 13.0889L158.171 14.4647L158.047 17.3702C158.028 17.7537 158.066 18.1925 158.167 18.6827L158.555 19.9635C158.853 20.9558 159 21.5725 159 21.8255C159 22.3749 158.845 22.8454 158.524 23.2288C158.128 23.6321 157.71 23.8416 157.268 23.8416C155.277 23.6321 154.344 21.7741 154.452 18.2676L154.576 14.4726C154.607 13.6108 154.29 12.8241 153.631 12.1323C153.011 11.4761 152.19 11.1479 151.175 11.1479C150.482 11.1479 149.746 11.2903 148.967 11.5788C148.189 11.8595 147.414 12.2825 146.643 12.832V14.8481L146.798 21.8294C146.798 22.7624 146.747 23.3395 146.647 23.5451C146.511 24.2764 145.969 24.6362 145.008 24.6362L144.354 24.5413L143.753 24.2487C143.358 24.0511 143.168 23.806 143.188 23.5135C143.463 19.9082 143.59 17.813 143.567 17.2161L143.447 14.0772C143.106 14.0772 142.812 13.9666 142.548 13.7373C142.289 13.508 142.157 13.2273 142.157 12.8952C142.242 12.3616 142.459 11.8397 142.816 11.3337L142.401 10.2427C142.269 9.87502 142.118 9.38483 141.956 8.77209C142.029 8.28189 142.227 7.84309 142.552 7.45963C142.913 7.03269 143.319 6.81922 143.78 6.81922C144.288 6.80736 144.737 7.02083 145.136 7.44777ZM129.924 9.02509V11.8753C129.781 11.8516 129.649 11.8397 129.529 11.8397C128.301 11.8397 127.205 12.2785 126.236 13.1522C125.768 13.5673 125.415 14.097 125.183 14.7414C125.183 14.8362 125.051 15.0932 124.795 15.5083L124.326 16.2752C124.222 16.5084 124.16 16.7812 124.137 17.0856L124.261 17.6114C125.128 21.3708 126.903 23.2525 129.583 23.2525C129.695 23.2525 129.808 23.2486 129.92 23.2407V26C129.854 26 129.788 26 129.723 26C128.076 26 126.728 25.6679 125.663 25.0157C124.973 24.5887 124.253 23.8851 123.505 22.8928C122.475 21.529 121.766 20.0821 121.379 18.5483C121.247 18.0304 121.181 17.6153 121.181 17.2991L121.29 16.627C121.305 16.5163 121.348 16.3819 121.41 16.2396C121.441 16.1329 121.483 16.042 121.53 15.9589L121.944 15.0695L122.316 14.0733C122.583 13.3538 122.959 12.6304 123.451 11.899C123.827 11.3377 124.528 10.7487 125.547 10.1359C126.779 9.40064 128.216 9.02509 129.847 9.02509H129.924V9.02509ZM50.8462 24.6441V21.1732C51.1677 21.0664 51.59 20.8965 52.1091 20.6632C53.1085 20.1928 53.8755 19.7145 54.4023 19.2243L55.3358 18.3664L56.0564 17.556C56.3081 17.2002 56.436 16.8959 56.436 16.6349C56.436 16.5005 56.3353 16.1566 56.1455 15.6071C55.9324 15.0102 55.8123 14.5872 55.7813 14.3381L55.4559 13.2471L55.1538 12.1204C55.0182 11.6421 54.6928 11.2468 54.1699 10.9384L53.3912 10.6222L52.2717 10.1992C52.1788 10.7052 51.8185 11.1321 51.191 11.48C51.0748 11.5433 50.9586 11.5986 50.8424 11.65V7.36476C50.8811 7.34104 50.916 7.31732 50.9586 7.2936C51.6016 7.01292 52.1827 6.87061 52.7017 6.87061C55.0066 7.16314 56.7614 8.21864 57.9661 10.0411C58.1365 10.298 58.276 10.5194 58.3806 10.7131C58.7563 11.7093 58.9461 12.5197 58.9461 13.1482C58.9461 13.5198 58.9887 13.8361 59.0701 14.097L59.2831 14.769L59.5427 15.3502L59.9378 16.4689C59.9804 16.6824 60.0308 16.9986 60.1044 17.4216C60.1044 18.1095 59.7945 18.7578 59.1863 19.3745L57.7182 20.8451L56.1881 22.1575C54.5843 23.5372 52.8024 24.3673 50.8462 24.6441ZM88.4095 7.99726L85.0859 16.3187L83.5093 20.6632C83.1219 21.7464 82.7423 23.0035 82.3665 24.4425C82.3665 24.6678 82.169 24.8654 81.77 25.0196C81.3323 25.1422 80.8248 25.2054 80.2554 25.2054C79.4729 25.2054 78.9654 25.0789 78.7291 24.818C78.0667 24.0867 77.5438 23.13 77.168 21.944L76.5405 19.9912L75.9749 17.726L75.1188 14.1326L74.7547 15.1367L74.2201 16.6389L72.016 23.7704C71.9269 24.0709 71.5667 24.3199 70.9469 24.5176C70.4549 24.6717 70.0056 24.7508 69.5988 24.7508C68.9558 24.7508 68.5684 24.5808 68.4406 24.2408L62.8973 9.49552C62.8973 8.96974 63.0484 8.52699 63.3505 8.17911C63.6527 7.82728 64.0594 7.64939 64.5824 7.64939C65.299 7.64939 65.7716 7.95773 66.0079 8.57047L67.0887 11.4761L68.0958 14.5239L69.0875 17.6904L70.0365 20.4418L72.3182 12.9466L72.9147 11.5077C73.4377 10.2506 74.0846 9.62202 74.8593 9.62202C75.2815 9.62202 75.6379 9.77224 75.9362 10.0766L76.1802 10.045L76.3933 10.0134C77.3811 10.0134 77.8769 10.7526 77.8769 12.2469L78.09 13.6977L78.4154 15.3857L78.6904 16.7298C79.0545 18.5325 79.5155 20.003 80.0694 21.1495C80.6273 19.2954 81.5996 16.5875 82.9825 13.0257L85.5042 6.52668C85.6359 6.18671 86.004 6.01673 86.6082 6.01673C87.8401 6.01673 88.4638 6.49506 88.4638 7.45173C88.4715 7.75217 88.4521 7.93401 88.4095 7.99726ZM95.9826 5.82302C96.1143 5.94952 96.1802 6.20648 96.1802 6.58994C96.1802 7.06827 96.0911 7.70078 95.9206 8.4835L95.7386 9.30972C95.7386 9.43226 95.7192 9.51923 95.6805 9.55877C96.7612 8.45583 98.4114 7.90239 100.639 7.90239C101.789 7.90239 102.8 8.09609 103.668 8.47955C104.594 8.89068 105.183 9.45994 105.427 10.2031C107.197 9.59039 108.874 9.28204 110.443 9.28204C111.524 9.28204 112.527 9.46389 113.445 9.83154C114.41 10.215 115.2 10.7368 115.808 11.397C116.413 12.0572 116.943 12.9704 117.393 14.1365C117.733 14.9983 117.9 16.0538 117.9 17.307C117.9 18.9475 117.598 20.8965 116.997 23.126C116.866 23.636 116.44 23.893 115.711 23.893C115.274 23.893 114.906 23.8179 114.607 23.6755C114.123 23.3435 113.809 22.5489 113.678 21.3036C113.678 20.7265 113.802 19.8844 114.05 18.7697C114.301 17.6549 114.425 16.8128 114.425 16.2436C114.425 14.5951 113.643 13.4645 112.07 12.8518C111.377 12.579 110.606 12.4485 109.761 12.4485C108.309 12.4485 107.065 12.8162 106.027 13.5554V13.9428C106.027 14.1524 106.008 14.3263 105.965 14.4607V19.7698C105.965 21.9678 105.171 23.2565 103.579 23.64L103.133 23.5016C102.696 23.3158 102.432 22.8572 102.355 22.1259L102.537 20.7502L102.886 19.1294L103.195 17.4888L103.331 16.0499V14.8995C103.331 14.773 103.312 14.6267 103.269 14.4607C102.518 14.014 102.111 13.4645 102.045 12.8201C102.13 12.3299 102.316 11.9623 102.614 11.7132C102.614 11.2428 102.165 11.0096 101.266 11.0096C100.069 11.0096 98.8492 11.3575 97.5941 12.0532C96.2267 12.8162 95.328 13.8163 94.898 15.0695C94.6617 15.7455 94.5067 16.5638 94.4215 17.5205L94.2085 20.1098C94.0767 21.7662 93.3407 22.7703 92.0043 23.126C91.586 22.9877 91.2993 22.8375 91.1327 22.6714C91.0126 22.5054 90.8926 22.1773 90.7841 21.6871C90.7841 21.4143 90.8538 20.9479 90.9817 20.2679L91.3225 18.5443L92.2677 14.9983C91.9346 14.7809 91.7254 14.3421 91.6402 13.6859C91.6402 12.8122 92.0469 11.8911 92.8643 10.9187V10.1241L93.0773 6.89038C93.1199 6.24601 93.3911 5.7993 93.8869 5.5463L94.7004 5.42375C95.204 5.43166 95.634 5.55816 95.9826 5.82302ZM6.17081 4.18641C6.17081 5.1154 6.8061 5.89418 8.08442 6.52668L11.6366 7.77984C12.7639 8.1633 13.8524 8.77604 14.8905 9.62597C15.8318 10.381 16.5446 11.2151 17.0327 12.1204C17.3619 12.7371 17.5982 13.3578 17.7377 13.9824C17.912 14.7453 17.9972 15.4095 17.9972 15.9985C17.9972 17.1765 17.85 18.1411 17.5517 18.9041C17.2767 19.5919 16.6918 20.3153 15.7931 21.0902L15.429 21.4064L14.5109 22.3394L14.0112 22.9047L13.2597 23.7151L12.6941 24.1183L11.8806 24.5729L10.951 24.8892L9.91281 25.0275C7.78614 25.0275 5.89965 24.5531 4.24945 23.6044C2.59538 22.6596 1.23958 21.3669 0.189811 19.7184C0.0619792 19.5208 0 19.2875 0 19.0029C0 18.6313 0.174317 18.2953 0.52295 18.0067C0.856088 17.7458 1.21247 17.6193 1.59209 17.6193C1.99883 17.6193 2.30098 17.7695 2.50629 18.0739C3.25391 19.165 4.27269 20.094 5.56264 20.8609C6.85258 21.6238 8.03793 22.0073 9.1187 22.0073C9.85857 22.0073 10.4629 21.8136 10.9122 21.4262C11.3887 21.1692 12.0201 20.6276 12.791 19.8014L14.0034 18.5206C14.6968 17.7853 15.0416 16.9275 15.0416 15.9629C15.0416 15.3106 14.8518 14.6149 14.4838 13.8559C14.1119 13.1048 13.4999 12.3971 12.6554 11.7409C11.4894 10.8435 10.3777 10.2071 9.30851 9.82363L7.68543 9.24647C7.1741 9.06857 6.48458 8.7879 5.61687 8.38863L4.79177 7.90634L4.07126 7.2343C3.67227 6.78759 3.38562 6.18276 3.19968 5.43956L3.07959 4.51847C3.07959 2.5498 4.15648 1.20967 6.30639 0.490193C7.27481 0.158127 8.25486 0 9.24653 0C10.734 0 12.3842 0.276722 14.2049 0.826213C14.4489 0.901323 14.569 1.16619 14.569 1.62475C14.569 2.75141 14.2087 3.37996 13.4844 3.51042L12.8878 3.29299L11.3422 2.90558C10.5946 2.71978 9.79659 2.62491 8.94051 2.62491C7.23608 2.62095 6.31026 3.14672 6.17081 4.18641ZM50.8462 7.36476V11.65C50.3194 11.8793 49.7616 11.99 49.1689 11.99C47.1585 12.2192 45.9266 13.081 45.4657 14.5872L45.2526 16.1803C45.2526 17.0026 45.4618 17.7814 45.8801 18.5206C46.3179 19.2915 46.8718 19.9319 47.5342 20.4458C47.8364 20.6751 48.2082 20.8886 48.6382 21.0862C49.0759 21.2285 49.4517 21.3036 49.7655 21.3036H50.3659C50.4898 21.2839 50.6487 21.2404 50.8462 21.1732V24.6441C50.3504 24.7152 49.8429 24.7508 49.3277 24.7508C48.0998 24.7508 46.9338 24.3041 45.822 23.4067C44.8497 22.6398 44.044 21.6357 43.4048 20.4102C42.7192 19.1136 42.2698 17.8367 42.0568 16.5677C42.0568 13.3182 43.246 10.9266 45.6245 9.39669C46.744 8.67721 47.9797 8.32142 49.3277 8.32142H50.0134C50.1257 7.96564 50.4007 7.64938 50.8462 7.36476ZM24.6561 7.44777C25.1326 8.07237 25.4696 8.73255 25.6633 9.43227C27.5382 8.47955 29.4092 7.99726 31.2647 7.99726C32.5042 7.99726 33.5889 8.21469 34.5224 8.65349C36.2501 9.44412 37.2844 10.9226 37.6291 13.0889L37.6911 14.4647L37.5672 17.3702C37.5478 17.7537 37.5865 18.1925 37.6873 18.6827L38.0746 19.9635C38.3729 20.9558 38.5201 21.5725 38.5201 21.8255C38.5201 22.3749 38.3652 22.8454 38.0436 23.2288C37.6446 23.6321 37.2302 23.8416 36.7886 23.8416C34.7975 23.6321 33.8639 21.7741 33.9724 18.2676L34.0963 14.4726C34.1273 13.6108 33.8097 12.8241 33.1511 12.1323C32.5275 11.4761 31.7101 11.1479 30.6952 11.1479C30.0018 11.1479 29.2658 11.2903 28.4872 11.5788C27.7086 11.8595 26.9339 12.2825 26.163 12.832V14.8481L26.3179 21.8294C26.3179 22.7624 26.2676 23.3395 26.1669 23.5451C26.0313 24.2764 25.489 24.6362 24.5283 24.6362L23.8736 24.5413L23.2732 24.2487C22.8781 24.0511 22.6883 23.806 22.7076 23.5135C22.9827 19.9082 23.1105 17.813 23.0873 17.2161L22.9672 14.0772C22.6263 14.0772 22.3319 13.9666 22.0685 13.7373C21.8089 13.508 21.6772 13.2273 21.6772 12.8952C21.7625 12.3616 21.9794 11.8397 22.3358 11.3337L21.9213 10.2427C21.7896 9.87502 21.6385 9.38483 21.4758 8.77209C21.5494 8.28189 21.747 7.84309 22.0724 7.45963C22.4326 7.03269 22.8394 6.81922 23.3003 6.81922C23.8039 6.80736 24.2533 7.02083 24.6561 7.44777Z" fill="white"/>
</svg>
