<svg width="460" height="630" viewBox="0 0 460 630" fill="none" xmlns="http://www.w3.org/2000/svg">
<path fill-rule="evenodd" clip-rule="evenodd" d="M277.335 285.863C289.993 282.762 333.237 270.05 353.555 237.348C373.873 204.646 400.848 219.547 407.943 231.731C425.853 262.499 374.931 316.65 309.818 342.458C405.207 665.173 106.311 727.641 89.2578 470.348C87.4135 444.459 89.0328 418.439 94.0728 392.979C80.5214 407.132 62.5016 430.788 59.8388 458.456C56.191 496.502 25.3858 495.389 13.6036 487.638C-8.79351 472.846 -2.00871 428.709 22.8142 385.611C57.6319 325.131 103.247 297.481 142.387 283.656L144.065 281.741L271.244 276.744C273.359 279.808 275.329 282.835 277.335 285.863Z" fill="url(#paint0_radial_32_141)"/>
<path fill-rule="evenodd" clip-rule="evenodd" d="M409.657 257.301C400.538 286.793 359.628 322.523 310.493 342.184L284.321 314.188C284.321 314.188 361.89 323.143 409.657 257.301Z" fill="url(#paint1_radial_32_141)"/>
<path fill-rule="evenodd" clip-rule="evenodd" d="M90.7346 413.57C89.2968 425.518 88.566 437.54 88.5459 449.574C88.5459 456.413 88.783 463.344 89.2572 470.347C90.1879 485.319 92.3041 500.194 95.586 514.832C95.732 515.47 95.8961 516.072 96.0603 516.656C122.379 622.112 212.66 643.761 276.204 602.797C291.543 589.063 304.675 570.058 313.958 546.038C244.651 625.887 102.389 606.226 91.4459 440.801C90.8014 431.463 90.5765 422.264 90.771 413.206L90.7346 413.57Z" fill="url(#paint2_radial_32_141)"/>
<path fill-rule="evenodd" clip-rule="evenodd" d="M276.496 286.428L274.417 283.984L145.415 298.885C145.415 298.885 156.577 337.059 218.169 329.891C269.948 323.799 275.931 295.384 276.496 286.428Z" fill="#D8D4D3"/>
<path fill-rule="evenodd" clip-rule="evenodd" d="M275.165 270.889L149.172 269.211C145.944 264.998 130.806 273.698 137.499 291.754C141.147 301.53 155.355 311.415 169.198 316.303C204.326 328.742 298.62 316.486 275.165 270.889Z" fill="url(#paint3_linear_32_141)"/>
<path fill-rule="evenodd" clip-rule="evenodd" d="M169.672 316.468C178.217 319.1 187.087 320.536 196.026 320.735C191.777 310.485 187.181 295.548 192.16 287.45L164.546 282.617C164.546 282.617 157.889 286.064 158.564 295.511C158.965 300.892 164.765 309.811 169.672 316.468ZM221.378 319.787C233.291 318.6 244.966 315.675 256.032 311.105C255.539 300.965 254.208 289.219 250.816 282.161L214.922 287.632C214.922 287.632 209.031 305.214 221.378 319.787V319.787Z" fill="url(#paint4_linear_32_141)"/>
<path fill-rule="evenodd" clip-rule="evenodd" d="M223.403 293.195L150.995 273.278C150.995 273.278 144.867 270.98 145.123 273.406C145.378 275.831 174.615 303.682 223.403 293.195Z" fill="url(#paint5_linear_32_141)"/>
<path fill-rule="evenodd" clip-rule="evenodd" d="M220.686 0.555031C262.47 3.1814 295.756 14.3617 295.063 25.5603C295.063 25.7427 295.063 25.9433 295.063 26.1439H295.391C282.893 69.7339 275.866 114.709 274.472 160.034L211.001 156.058L147.512 152.064C151.811 106.926 150.47 61.429 143.518 16.6233H143.846C143.828 16.4231 143.828 16.2217 143.846 16.0214C144.466 4.8776 178.901 -2.07134 220.686 0.555031Z" fill="#131209"/>
<path fill-rule="evenodd" clip-rule="evenodd" d="M266.811 7.70438C284.43 12.5194 295.555 19.0306 295.154 25.5601C295.154 25.7425 295.154 25.9431 295.154 26.1437H295.482C282.984 69.7337 275.957 114.709 274.563 160.034L255.375 158.83C257.289 111.768 263.146 64.9496 272.885 18.8665H272.666V18.2646C272.903 14.6168 270.842 10.9691 266.829 7.70438H266.811ZM166.735 153.286L147.53 152.082C151.83 106.944 150.489 61.447 143.536 16.6413H143.864C143.846 16.4472 143.846 16.2518 143.864 16.0577C144.265 9.5465 156.139 4.47613 174.213 1.88623C169.891 4.64028 167.337 7.95971 167.1 11.6257C167.1 11.8446 167.1 12.0452 167.1 12.2458H166.863C170.739 59.1823 170.666 106.361 166.644 153.286H166.735Z" fill="#413B3A"/>
<path fill-rule="evenodd" clip-rule="evenodd" d="M277.754 112.997C276.131 127.587 274.872 143.4 274.325 159.979L210.855 156.003L147.366 152.009C148.898 135.503 149.646 119.672 149.846 104.972C163.635 99.8464 187.509 97.366 214.429 99.0439C241.35 100.722 264.786 106.248 277.754 112.997Z" fill="url(#paint6_linear_32_141)"/>
<path fill-rule="evenodd" clip-rule="evenodd" d="M277.754 112.997C276.624 123.064 275.693 133.697 275.037 144.75C274.782 149.006 274.575 153.31 274.417 157.663V158.429V159.213V159.979L255.23 158.776C256.014 139.99 257.418 122.298 259.114 106.011C265.554 107.684 271.801 110.026 277.754 112.997V112.997ZM166.498 153.213L147.293 152.009V151.243V150.477V149.693C147.676 145.352 148.023 141.048 148.296 136.816L148.424 134.682C149.08 124.396 149.427 114.456 149.555 104.971C155.865 102.773 162.387 101.239 169.015 100.394C169.034 116.735 168.213 134.555 166.644 153.286L166.498 153.213Z" fill="url(#paint7_linear_32_141)"/>
<path fill-rule="evenodd" clip-rule="evenodd" d="M119.078 163.135C160.589 184.365 257.327 190.493 301.173 174.552C315.217 169.464 317.315 166.016 305.897 158.994C270.806 137.418 155.373 130.068 116.981 146.811C104.487 152.264 105.125 155.985 119.078 163.135Z" fill="#1D1D1B"/>
<path fill-rule="evenodd" clip-rule="evenodd" d="M288.005 163.883C299.063 177.424 305.141 194.349 305.222 211.832C305.222 257.429 263.638 294.508 212.351 294.508C161.063 294.508 119.479 257.502 119.479 211.832C119.551 194.348 125.63 177.419 136.696 163.883C145.196 144.604 278.265 144.659 288.005 163.883Z" fill="url(#paint8_radial_32_141)"/>
<path fill-rule="evenodd" clip-rule="evenodd" d="M288.005 163.883C292.794 169.839 296.712 176.447 299.641 183.507C278.739 173.458 224.862 154.8 132.392 169.774C133.742 167.767 135.183 165.798 136.715 163.883C145.196 144.604 278.265 144.659 288.005 163.883Z" fill="#D1C8C4"/>
<path fill-rule="evenodd" clip-rule="evenodd" d="M288.005 163.883C298.146 176.323 304.124 191.635 305.094 207.656C302.833 245.574 267.577 275.704 224.406 275.704C179.794 275.704 143.609 243.495 143.609 203.771C143.672 188.556 148.958 173.825 158.583 162.041C162.048 154.198 189.224 150.021 218.041 149.529C251.454 150.021 283.409 154.818 288.005 163.883Z" fill="white"/>
<path fill-rule="evenodd" clip-rule="evenodd" d="M288.005 163.883C292.795 169.84 296.713 176.447 299.641 183.508C287.932 170.303 221.105 150.678 155.172 166.509C156.248 164.922 157.397 163.518 158.601 162.004C162.067 154.162 189.242 149.985 218.059 149.492C251.454 150.021 283.409 154.818 288.005 163.883Z" fill="#FDECE5"/>
<path fill-rule="evenodd" clip-rule="evenodd" d="M177.879 172.82C183.205 172.82 187.199 178.109 186.816 184.62C186.433 191.131 181.801 196.42 176.475 196.42C171.149 196.42 167.155 191.131 167.556 184.62C167.957 178.109 172.572 172.82 177.879 172.82Z" fill="#131209"/>
<path fill-rule="evenodd" clip-rule="evenodd" d="M252.221 172.82C246.913 172.82 242.919 178.109 243.302 184.62C243.685 191.131 248.317 196.42 253.625 196.42C258.932 196.42 262.945 191.131 262.562 184.62C262.179 178.109 257.546 172.82 252.221 172.82Z" fill="#131209"/>
<path fill-rule="evenodd" clip-rule="evenodd" d="M155.957 199.667C158.361 199.678 160.736 200.191 162.929 201.173C165.123 202.156 167.088 203.586 168.697 205.372C170.306 207.157 171.524 209.26 172.273 211.544C173.022 213.828 173.285 216.243 173.047 218.635C172.726 223.666 170.541 228.396 166.919 231.9C163.296 235.405 158.496 237.432 153.458 237.585C151.057 237.574 148.684 237.062 146.493 236.08C144.301 235.099 142.339 233.67 140.731 231.886C139.124 230.102 137.907 228.001 137.159 225.72C136.411 223.438 136.148 221.025 136.387 218.635C136.698 213.603 138.877 208.869 142.498 205.36C146.118 201.851 150.918 199.821 155.957 199.667V199.667Z" fill="#E95114"/>
<path fill-rule="evenodd" clip-rule="evenodd" d="M155.957 199.667C156.376 199.667 156.778 199.667 157.179 199.667C153.043 200.073 149.186 201.936 146.296 204.923C143.407 207.909 141.672 211.825 141.402 215.972C141.186 218.04 141.405 220.13 142.046 222.107C142.687 224.085 143.736 225.906 145.125 227.453C146.514 229 148.212 230.238 150.109 231.088C152.006 231.938 154.06 232.381 156.139 232.387C160.499 232.258 164.652 230.502 167.781 227.464C170.91 224.426 172.789 220.326 173.047 215.972C173.219 218.682 172.845 221.399 171.946 223.961C171.047 226.523 169.642 228.878 167.815 230.886C165.987 232.893 163.774 234.513 161.308 235.649C158.842 236.784 156.172 237.411 153.458 237.494C151.057 237.483 148.684 236.97 146.493 235.989C144.301 235.008 142.339 233.579 140.731 231.795C139.124 230.011 137.907 227.91 137.159 225.628C136.411 223.347 136.148 220.933 136.387 218.544C136.72 213.528 138.909 208.816 142.527 205.327C146.145 201.837 150.932 199.819 155.957 199.667Z" fill="#D84616"/>
<path fill-rule="evenodd" clip-rule="evenodd" d="M268.727 199.667C266.324 199.68 263.952 200.195 261.76 201.179C259.568 202.162 257.606 203.593 255.999 205.378C254.392 207.164 253.176 209.265 252.428 211.548C251.68 213.831 251.417 216.245 251.655 218.635C251.971 223.667 254.155 228.399 257.779 231.905C261.402 235.41 266.204 237.436 271.244 237.585C273.645 237.574 276.018 237.062 278.209 236.08C280.401 235.099 282.363 233.67 283.971 231.886C285.578 230.102 286.795 228.001 287.543 225.72C288.291 223.438 288.554 221.025 288.315 218.635C287.999 213.602 285.816 208.867 282.193 205.359C278.57 201.85 273.768 199.821 268.727 199.667Z" fill="#E95114"/>
<path fill-rule="evenodd" clip-rule="evenodd" d="M268.726 199.667C268.325 199.667 267.924 199.667 267.522 199.667C271.655 200.077 275.507 201.942 278.393 204.928C281.279 207.914 283.011 211.828 283.281 215.972C283.497 218.04 283.278 220.13 282.637 222.107C281.996 224.085 280.947 225.906 279.558 227.453C278.169 229 276.471 230.238 274.574 231.088C272.677 231.938 270.623 232.381 268.544 232.387C264.186 232.258 260.035 230.501 256.909 227.462C253.783 224.424 251.908 220.325 251.655 215.972C251.482 218.682 251.857 221.399 252.755 223.961C253.654 226.523 255.059 228.878 256.887 230.886C258.714 232.893 260.927 234.513 263.393 235.649C265.86 236.784 268.529 237.411 271.243 237.494C273.644 237.483 276.017 236.97 278.209 235.989C280.4 235.008 282.363 233.579 283.97 231.795C285.577 230.011 286.794 227.91 287.542 225.628C288.29 223.347 288.553 220.933 288.314 218.544C287.977 213.527 285.784 208.815 282.163 205.325C278.542 201.836 273.752 199.819 268.726 199.667Z" fill="#D84616"/>
<path fill-rule="evenodd" clip-rule="evenodd" d="M228.729 197.971C229.665 200.143 230.074 202.507 229.921 204.869C229.768 207.23 229.057 209.521 227.848 211.555C226.638 213.588 224.964 215.306 222.962 216.568C220.96 217.829 218.688 218.599 216.331 218.812C213.975 219.026 211.601 218.678 209.405 217.798C207.209 216.917 205.253 215.529 203.697 213.746C202.141 211.963 201.03 209.837 200.454 207.542C199.879 205.247 199.855 202.848 200.386 200.542C201.029 197.594 202.571 194.918 204.799 192.882L212.095 183.526H212.186C212.978 182.125 214.2 181.017 215.671 180.366C217.142 179.716 218.784 179.556 220.353 179.913C221.921 180.269 223.333 181.122 224.379 182.344C225.425 183.567 226.048 185.094 226.157 186.699L228.729 197.971Z" fill="#F18B68"/>
<path fill-rule="evenodd" clip-rule="evenodd" d="M217.166 218.781C215.344 219.04 213.49 218.966 211.694 218.562C209.777 218.125 207.964 217.315 206.36 216.177C204.756 215.04 203.392 213.597 202.345 211.933C201.298 210.268 200.59 208.413 200.26 206.474C199.93 204.536 199.985 202.551 200.423 200.634C201.039 197.657 202.569 194.947 204.8 192.882L212.095 183.526H212.187C212.745 182.561 213.512 181.734 214.431 181.103C215.349 180.472 216.397 180.055 217.498 179.88C218.598 179.705 219.724 179.778 220.793 180.093C221.862 180.408 222.847 180.958 223.677 181.702L214.558 184.036C214.558 184.036 202.046 210.081 217.166 218.781Z" fill="#DE7D5C"/>
<path fill-rule="evenodd" clip-rule="evenodd" d="M220.23 180.881C221.488 181.169 222.633 181.823 223.519 182.761C224.406 183.699 224.995 184.879 225.211 186.152C225.427 187.424 225.262 188.732 224.735 189.911C224.209 191.089 223.344 192.085 222.252 192.772C221.16 193.46 219.888 193.808 218.598 193.773C217.307 193.738 216.056 193.322 215.003 192.576C213.949 191.831 213.14 190.79 212.678 189.585C212.215 188.38 212.121 187.065 212.406 185.806C212.595 184.968 212.948 184.176 213.444 183.475C213.94 182.774 214.569 182.178 215.296 181.72C216.023 181.263 216.833 180.953 217.679 180.809C218.526 180.665 219.393 180.69 220.23 180.881V180.881Z" fill="#F7B69E"/>
<path fill-rule="evenodd" clip-rule="evenodd" d="M220.357 181.574C221.054 181.744 221.685 182.115 222.172 182.641C222.658 183.167 222.979 183.824 223.095 184.532C223.21 185.239 223.114 185.965 222.82 186.618C222.525 187.271 222.044 187.823 221.438 188.205C220.831 188.587 220.126 188.782 219.409 188.765C218.693 188.749 217.997 188.521 217.409 188.111C216.821 187.702 216.367 187.128 216.103 186.462C215.839 185.795 215.777 185.066 215.925 184.365C216.026 183.887 216.222 183.434 216.501 183.033C216.781 182.632 217.137 182.292 217.551 182.032C217.964 181.771 218.426 181.597 218.908 181.518C219.39 181.44 219.883 181.459 220.357 181.574Z" fill="#F9C9BA"/>
<path d="M180.852 227.9C182.761 232.178 185.527 236.019 188.977 239.187C192.427 242.355 196.49 244.783 200.915 246.321C205.801 248.075 210.973 248.898 216.162 248.747C221.187 248.644 226.144 247.559 230.753 245.555C234.204 244.138 237.329 242.03 239.936 239.361C242.542 236.692 244.575 233.518 245.91 230.034C246.639 228.21 248.955 228.922 248.554 231.019C247.065 234.836 244.809 238.307 241.926 241.218C239.044 244.129 235.595 246.418 231.793 247.945C226.866 250.085 221.569 251.244 216.199 251.355C210.686 251.505 205.194 250.627 200.003 248.765C195.204 247.154 190.786 244.576 187.022 241.191C183.258 237.807 180.227 233.687 178.116 229.086C177.441 226.77 179.977 226.259 180.852 227.9Z" fill="#1D1D1B"/>
<path fill-rule="evenodd" clip-rule="evenodd" d="M184.445 180.48C184.864 181.792 185.031 183.172 184.938 184.547C184.628 189.8 180.907 194.068 176.621 194.068C172.335 194.068 169.107 189.8 169.417 184.547C169.472 183.605 169.644 182.674 169.927 181.775C170.314 183.281 171.172 184.624 172.376 185.609C173.58 186.593 175.068 187.167 176.621 187.246C178.473 187.09 180.228 186.351 181.634 185.136C183.039 183.92 184.024 182.29 184.445 180.48V180.48Z" fill="#454444"/>
<path fill-rule="evenodd" clip-rule="evenodd" d="M244.706 183.909C244.706 184.146 244.706 184.383 244.706 184.62C245.034 190.092 248.974 194.67 253.515 194.67C258.057 194.67 261.449 190.183 261.121 184.62C261.006 182.749 260.47 180.929 259.552 179.294C259.552 184.511 256.251 188.633 251.929 188.633C250.416 188.547 248.953 188.065 247.686 187.236C246.418 186.407 245.391 185.26 244.706 183.909V183.909Z" fill="#454444"/>
<path d="M430.632 324.766C424.522 327.411 422.169 320.754 422.169 320.754L360.996 179.623C360.356 178.293 359.458 177.103 358.356 176.121C357.253 175.139 355.967 174.385 354.572 173.902C353.177 173.419 351.7 173.216 350.227 173.306C348.753 173.396 347.312 173.776 345.986 174.425C333.219 179.55 338.326 189.016 338.326 189.016L400.884 333.339C400.884 333.339 410.186 360.222 440.426 347.109L430.632 324.766Z" fill="#DADADA"/>
<path d="M430.777 324.693C436.887 322.049 434.042 315.939 434.042 315.939L429.136 304.722C429.136 304.722 424.084 295.056 435.519 290.131C447.52 284.933 451.332 295.274 451.332 295.274L457.041 308.424C467.09 334.232 440.535 347.091 440.535 347.091L430.777 324.693Z" fill="#DADADA"/>
<path d="M459.248 322.359C459.676 317.598 458.943 312.804 457.114 308.388L455.144 303.828C450.822 306.217 442.231 309.3 429.756 306.345L433.933 315.975C434.277 316.807 434.492 317.687 434.571 318.583C442.085 322.74 450.835 324.079 459.248 322.359V322.359Z" fill="url(#paint9_linear_32_141)"/>
<path d="M420.016 350.227C417.59 345.321 416.186 336.566 423.244 322.687C423.992 323.905 425.173 324.795 426.551 325.177C427.928 325.56 429.399 325.406 430.668 324.748L431.16 324.511C432.984 329.982 437.033 340.287 444.511 344.756C437.344 349.64 428.58 351.598 420.016 350.227V350.227Z" fill="url(#paint10_linear_32_141)"/>
<path d="M398.368 327.411C403.214 320.113 409.827 314.159 417.591 310.103L410.733 294.29C402.969 298.338 396.355 304.286 391.51 311.58L398.368 327.411Z" fill="url(#paint11_linear_32_141)"/>
<path d="M397.346 263.393C389.551 267.468 382.917 273.455 378.067 280.793L384.925 296.624C389.772 289.326 396.384 283.372 404.149 279.315L397.346 263.393Z" fill="url(#paint12_linear_32_141)"/>
<path d="M370.772 202.184C363.003 206.235 356.389 212.19 351.548 219.492L358.406 235.305C363.246 228.007 369.861 222.058 377.629 218.015L370.772 202.184Z" fill="url(#paint13_linear_32_141)"/>
<path d="M383.74 232.004C375.975 236.061 369.362 242.015 364.516 249.313L371.374 265.144C376.215 257.837 382.829 251.876 390.597 247.817L383.74 232.004Z" fill="url(#paint14_linear_32_141)"/>
<path d="M361.033 179.604C360.284 178.125 359.23 176.821 357.941 175.777C356.653 174.734 355.158 173.974 353.555 173.549C347.403 177.403 342.158 182.542 338.18 188.614L338.362 188.997L345.056 204.427C349.902 197.129 356.515 191.175 364.279 187.119L361.033 179.604Z" fill="url(#paint15_linear_32_141)"/>
<path d="M445.186 296.715C453.867 306.163 459.084 321.301 452.189 333.065C449.659 337.158 446.057 340.481 441.775 342.677L440.881 340.999C444.856 338.971 448.199 335.892 450.548 332.098C456.895 321.465 452.116 307.02 443.8 298.01L445.186 296.715Z" fill="white"/>
<path d="M355.607 178.539L353.878 179.319L385.902 250.31L387.631 249.53L355.607 178.539Z" fill="white"/>
<path fill-rule="evenodd" clip-rule="evenodd" d="M91.2459 409.576C92.0241 403.959 92.9664 398.426 94.0729 392.979C80.5215 407.132 62.5017 430.77 59.8388 458.456C56.9207 488.678 36.8945 494.186 22.8872 491.286C45.7038 469.91 40.5423 428.49 40.5423 428.49C57.6684 347.455 122.872 332.317 122.872 332.317C109.047 350.1 95.8603 391.593 95.8603 391.593L91.2459 409.576Z" fill="url(#paint16_radial_32_141)"/>
<defs>
<radialGradient id="paint0_radial_32_141" cx="0" cy="0" r="1" gradientUnits="userSpaceOnUse" gradientTransform="translate(189.315 341.254) scale(325.05)">
<stop stop-color="white"/>
<stop offset="1" stop-color="#EFEEEE"/>
</radialGradient>
<radialGradient id="paint1_radial_32_141" cx="0" cy="0" r="1" gradientUnits="userSpaceOnUse" gradientTransform="translate(341.973 279.37) scale(89.0778)">
<stop stop-color="#F6F6F6"/>
<stop offset="1" stop-color="#E7E7E7"/>
</radialGradient>
<radialGradient id="paint2_radial_32_141" cx="0" cy="0" r="1" gradientUnits="userSpaceOnUse" gradientTransform="translate(62554.8 80048.4) scale(22110.7 20501.3)">
<stop stop-color="#F6F6F6"/>
<stop offset="1" stop-color="#E7E7E7"/>
</radialGradient>
<linearGradient id="paint3_linear_32_141" x1="123.036" y1="294.526" x2="275.475" y2="294.526" gradientUnits="userSpaceOnUse">
<stop stop-color="#E8424A"/>
<stop offset="0.31" stop-color="#E8424A"/>
<stop offset="0.51" stop-color="#EE7179"/>
<stop offset="0.72" stop-color="#E8424A"/>
<stop offset="1" stop-color="#E8424A"/>
</linearGradient>
<linearGradient id="paint4_linear_32_141" x1="159.166" y1="301.457" x2="256.05" y2="301.457" gradientUnits="userSpaceOnUse">
<stop stop-color="#EE767D"/>
<stop offset="0.31" stop-color="#EE767D"/>
<stop offset="0.51" stop-color="#F2959C"/>
<stop offset="0.72" stop-color="#EE767D"/>
<stop offset="1" stop-color="#EE767D"/>
</linearGradient>
<linearGradient id="paint5_linear_32_141" x1="83.348" y1="283.929" x2="380.42" y2="283.929" gradientUnits="userSpaceOnUse">
<stop stop-color="#C72F30"/>
<stop offset="0.31" stop-color="#C72F30"/>
<stop offset="0.51" stop-color="#CF595F"/>
<stop offset="0.72" stop-color="#C72F30"/>
<stop offset="1" stop-color="#C72F30"/>
</linearGradient>
<linearGradient id="paint6_linear_32_141" x1="33109.6" y1="12163.7" x2="42323.1" y2="13188.4" gradientUnits="userSpaceOnUse">
<stop stop-color="#E8424A"/>
<stop offset="0.31" stop-color="#E8424A"/>
<stop offset="0.51" stop-color="#EE7179"/>
<stop offset="0.72" stop-color="#E8424A"/>
<stop offset="1" stop-color="#E8424A"/>
</linearGradient>
<linearGradient id="paint7_linear_32_141" x1="149.883" y1="126.475" x2="275.693" y2="133.077" gradientUnits="userSpaceOnUse">
<stop stop-color="#E51F27"/>
<stop offset="0.31" stop-color="#E51F27"/>
<stop offset="0.51" stop-color="#E73446"/>
<stop offset="0.72" stop-color="#E51F27"/>
<stop offset="1" stop-color="#E51F27"/>
</linearGradient>
<radialGradient id="paint8_radial_32_141" cx="0" cy="0" r="1" gradientUnits="userSpaceOnUse" gradientTransform="translate(52881.6 33609.9) scale(14478.7 11307.7)">
<stop stop-color="#F6F6F6"/>
<stop offset="1" stop-color="#E7E7E7"/>
</radialGradient>
<linearGradient id="paint9_linear_32_141" x1="12162.4" y1="6040.83" x2="13136.3" y2="6171.49" gradientUnits="userSpaceOnUse">
<stop stop-color="#E8424A"/>
<stop offset="0.31" stop-color="#E8424A"/>
<stop offset="0.51" stop-color="#EE7179"/>
<stop offset="0.72" stop-color="#E8424A"/>
<stop offset="1" stop-color="#E8424A"/>
</linearGradient>
<linearGradient id="paint10_linear_32_141" x1="10805.7" y1="9016.66" x2="11651.2" y2="9143.5" gradientUnits="userSpaceOnUse">
<stop stop-color="#E8424A"/>
<stop offset="0.31" stop-color="#E8424A"/>
<stop offset="0.51" stop-color="#EE7179"/>
<stop offset="0.72" stop-color="#E8424A"/>
<stop offset="1" stop-color="#E8424A"/>
</linearGradient>
<linearGradient id="paint11_linear_32_141" x1="10344.7" y1="10110.8" x2="11100.9" y2="10216" gradientUnits="userSpaceOnUse">
<stop stop-color="#E8424A"/>
<stop offset="0.31" stop-color="#E8424A"/>
<stop offset="0.51" stop-color="#EE7179"/>
<stop offset="0.72" stop-color="#E8424A"/>
<stop offset="1" stop-color="#E8424A"/>
</linearGradient>
<linearGradient id="paint12_linear_32_141" x1="10139.3" y1="9549.44" x2="10835.9" y2="9645.95" gradientUnits="userSpaceOnUse">
<stop stop-color="#E8424A"/>
<stop offset="0.31" stop-color="#E8424A"/>
<stop offset="0.51" stop-color="#EE7179"/>
<stop offset="0.72" stop-color="#E8424A"/>
<stop offset="1" stop-color="#E8424A"/>
</linearGradient>
<linearGradient id="paint13_linear_32_141" x1="9732.78" y1="8346.09" x2="10363.3" y2="8433.56" gradientUnits="userSpaceOnUse">
<stop stop-color="#E8424A"/>
<stop offset="0.31" stop-color="#E8424A"/>
<stop offset="0.51" stop-color="#EE7179"/>
<stop offset="0.72" stop-color="#E8424A"/>
<stop offset="1" stop-color="#E8424A"/>
</linearGradient>
<linearGradient id="paint14_linear_32_141" x1="9930.63" y1="8922.24" x2="10561.2" y2="9009.65" gradientUnits="userSpaceOnUse">
<stop stop-color="#E8424A"/>
<stop offset="0.31" stop-color="#E8424A"/>
<stop offset="0.51" stop-color="#EE7179"/>
<stop offset="0.72" stop-color="#E8424A"/>
<stop offset="1" stop-color="#E8424A"/>
</linearGradient>
<linearGradient id="paint15_linear_32_141" x1="9526.03" y1="7272.13" x2="10250.9" y2="7369.21" gradientUnits="userSpaceOnUse">
<stop stop-color="#E8424A"/>
<stop offset="0.31" stop-color="#E8424A"/>
<stop offset="0.51" stop-color="#EE7179"/>
<stop offset="0.72" stop-color="#E8424A"/>
<stop offset="1" stop-color="#E8424A"/>
</linearGradient>
<radialGradient id="paint16_radial_32_141" cx="0" cy="0" r="1" gradientUnits="userSpaceOnUse" gradientTransform="translate(20967.7 53497.7) scale(5536.15 8839.88)">
<stop stop-color="#F6F6F6"/>
<stop offset="1" stop-color="#E7E7E7"/>
</radialGradient>
</defs>
</svg>
